<svg xmlns="http://www.w3.org/2000/svg" viewBox="1123.317 435.317 33.183 33.183">
  <defs>
    <style>
      .cls-1 {
        fill: #fff;
        stroke: #95989a;
      }
    </style>
  </defs>
  <path id="if_80_Globe_106142" class="cls-1" d="M16.092,32.183A16.092,16.092,0,1,1,32.183,16.092,16.092,16.092,0,0,1,16.092,32.183Zm0-28.16A12.069,12.069,0,1,0,28.16,16.092,12.069,12.069,0,0,0,16.092,4.023Zm5.915,19.323-.354.206-1.021.623-.6.438a9.487,9.487,0,0,1-1.4.526v-.593l-.171-1.365a4.106,4.106,0,0,0-.212-.994,1.761,1.761,0,0,0-.725-.623c-.3-.124-.511-.124-.682-.33s-.3-.581-.511-.911a2.816,2.816,0,0,1-.469-.829V17.63l.214-1.573.468-.332L17.1,15.1l.383-.124,1.32.248h.937l.385.788.894.7.554.87.723.248H23.1l.554.664.342.7.128.5v.829l-.088.489A9.265,9.265,0,0,1,22.006,23.346ZM18.714,9.055l-.937.5-.34.953-.554.5H15.051l-.851.332L14.157,12l-.34.538-.086.581.171.5.212.5s.513.579,0,.994c0,0-.638,0-.766-.208a14.126,14.126,0,0,0-1.236-.953,2.534,2.534,0,0,0-.723-.33l-.682-.249-.638-.041.041-.87-.041-.744-.257-.538-.723-.54-.043-.579.088-.322a9.635,9.635,0,0,1,10.843-1.76l-.028.218Z" transform="translate(1123.817 435.817)"/>
</svg>
