<svg xmlns="http://www.w3.org/2000/svg" viewBox="439.188 174.609 154.947 111.29">
  <defs>
    <style>
      .cls-1 {
        fill: #fff;
      }
    </style>
  </defs>
  <g id="logo11-01" transform="matrix(0.999, -0.035, 0.035, 0.999, 376.634, 159.728)">
    <line id="Line_1" data-name="Line 1" class="cls-1" x2="0.184" y2="46.964" transform="translate(175.8 24.895)"/>
    <path id="Path_23" data-name="Path 23" class="cls-1" d="M107.114,70.224,106.93,23.26h20.679l.184,46.964Z" transform="translate(58.531 1.635)"/>
    <path id="Path_24" data-name="Path 24" class="cls-1" d="M126.5,108.8a56.8,56.8,0,0,1-28.123-7.674A67.413,67.413,0,0,1,65.154,53.634c-.9-5.1-1.953-10.477-2.5-15.509l20.679-.965A78.118,78.118,0,0,0,84.96,49.269,50.548,50.548,0,0,0,108.6,83.136a34.051,34.051,0,0,0,27.985,3.332c19.369-6.5,28.9-17.3,27.916-35.545l20.679-2.3c1.172,27.572-13.786,47.86-42.047,57.441A51.9,51.9,0,0,1,126.5,108.8Z" transform="translate(1.071 19.672)"/>
    <path id="Path_25" data-name="Path 25" class="cls-1" d="M133.17,100.28a39.06,39.06,0,1,1,39.06-38.945A39.06,39.06,0,0,1,133.17,100.28Zm0-63.6a24.654,24.654,0,1,0,24.654,24.654A24.654,24.654,0,0,0,133.17,36.681Z" transform="translate(41.895 0.208)"/>
    <path id="Path_26" data-name="Path 26" class="cls-1" d="M66.984,76.661C66.41,75.076,60.206,43.782,62.228,22l20.679,1.815c-1.723,19.645,2.3,50.249,2.3,50.548Z" transform="translate(0)"/>
    <path id="Path_27" data-name="Path 27" class="cls-1" d="M114.9,43.97,62.95,41.626,65.2,22.28l61.577,3.768Z" transform="translate(1.461 0.363)"/>
    <path id="Path_28" data-name="Path 28" class="cls-1" d="M100.832,52.752l-36.372-.9L65.471,33.75,110.3,35.106Z" transform="translate(3.42 15.247)"/>
  </g>
</svg>
