<svg xmlns="http://www.w3.org/2000/svg" viewBox="1124.5 481.5 32.102 32.102">
  <defs>
    <style>
      .cls-1 {
        fill: #fffcfc;
        stroke: #95989a;
        fill-rule: evenodd;
      }
    </style>
  </defs>
  <path id="if_47_111099" class="cls-1" d="M31.949,59.487a1.62,1.62,0,0,0,3.207.324h.032a1.3,1.3,0,1,1,2.592,0v.648a2.591,2.591,0,0,0,2.592,2.592h2.592a2.591,2.591,0,0,0,2.592-2.592V50.74a2.591,2.591,0,0,0-2.592-2.592H40.373a2.591,2.591,0,0,0-2.592,2.592v.648a1.3,1.3,0,1,1-2.592,0V47.5a12.311,12.311,0,1,1,24.622,0v3.888a1.3,1.3,0,1,1-2.592,0V50.74a2.591,2.591,0,0,0-2.592-2.592H52.036a2.591,2.591,0,0,0-2.592,2.592v9.72a2.591,2.591,0,0,0,2.592,2.592h2.592a2.591,2.591,0,0,0,2.592-2.592v-.648a1.3,1.3,0,1,1,2.592,0h.032a1.62,1.62,0,0,0,3.208-.324V47.5a15.551,15.551,0,0,0-31.1,0V59.487Z" transform="translate(1093.051 450.051)"/>
</svg>
